# xmcd
#
# Track frame offsets:
#	150
#	16801
#	37137
#	58994
#	75006
#	93944
#	107852
#	125912
#	154617
#	195738
#	205792
#	230266
#
# Disc length: 3442 seconds
#
# Revision: 1
# Processed by: cddbd v1.5.1PL0 Copyright (c) Steve Scherf et al.
# Submitted via: audiograbber 1.83.01
#
DISCID=960d700c
DTITLE=The Jim James Band - Silent Film
DYEAR=2000
DGENRE=Rock
TTITLE0=Rip Roarin'
TTITLE1=Billy's Song
TTITLE2=Spider Carcass
TTITLE3=Debris
TTITLE4=Actress/Waitress
TTITLE5=Alabama Banana Monopoly
TTITLE6=Brag
TTITLE7=Ok Charlie
TTITLE8=Too Much To Drink
TTITLE9=Won't Go Home
TTITLE10=Lazy Eye
TTITLE11=Silent Film
EXTD=
EXTT0=
EXTT1=
EXTT2=
EXTT3=
EXTT4=
EXTT5=
EXTT6=
EXTT7=
EXTT8=
EXTT9=
EXTT10=
EXTT11=
PLAYORDER=
